<mxfile host="Electron" modified="2024-04-16T20:15:23.702Z" agent="Mozilla/5.0 (Windows NT 10.0; Win64; x64) AppleWebKit/537.36 (KHTML, like Gecko) draw.io/24.2.5 Chrome/120.0.6099.109 Electron/28.1.0 Safari/537.36" etag="p1aoDKN0UodIu0aMSHYL" version="24.2.5" type="device">
  <diagram name="Page-1" id="GP22KpwJOW81ieQdEucJ">
    <mxGraphModel dx="1434" dy="884" grid="1" gridSize="10" guides="1" tooltips="1" connect="1" arrows="1" fold="1" page="1" pageScale="1" pageWidth="850" pageHeight="1100" math="0" shadow="0">
      <root>
        <mxCell id="0" />
        <mxCell id="1" parent="0" />
        <mxCell id="oTFs_Lw1YSFHcPAPJdp--1" value="Input: Optimization problem description" style="ellipse;whiteSpace=wrap;html=1;" vertex="1" parent="1">
          <mxGeometry x="360" y="40" width="155" height="60" as="geometry" />
        </mxCell>
        <mxCell id="oTFs_Lw1YSFHcPAPJdp--2" value="" style="rounded=0;html=1;jettySize=auto;orthogonalLoop=1;fontSize=11;endArrow=block;endFill=0;endSize=8;strokeWidth=1;shadow=0;labelBackgroundColor=none;edgeStyle=orthogonalEdgeStyle;exitX=0.5;exitY=1;exitDx=0;exitDy=0;entryX=0.5;entryY=0;entryDx=0;entryDy=0;" edge="1" parent="1" source="oTFs_Lw1YSFHcPAPJdp--1" target="oTFs_Lw1YSFHcPAPJdp--3">
          <mxGeometry relative="1" as="geometry">
            <mxPoint x="437.5" y="90" as="sourcePoint" />
            <mxPoint x="437.5" y="140" as="targetPoint" />
          </mxGeometry>
        </mxCell>
        <mxCell id="oTFs_Lw1YSFHcPAPJdp--3" value="Extract the decision variables by LLM" style="rounded=1;whiteSpace=wrap;html=1;fontSize=12;glass=0;strokeWidth=1;shadow=0;fillColor=#d5e8d4;strokeColor=#82b366;" vertex="1" parent="1">
          <mxGeometry x="377.5" y="120" width="120" height="40" as="geometry" />
        </mxCell>
        <mxCell id="oTFs_Lw1YSFHcPAPJdp--4" value="Add the response to the prompt" style="rounded=1;whiteSpace=wrap;html=1;fontSize=12;glass=0;strokeWidth=1;shadow=0;fillColor=#dae8fc;strokeColor=#6c8ebf;" vertex="1" parent="1">
          <mxGeometry x="377.5" y="180" width="120" height="40" as="geometry" />
        </mxCell>
        <mxCell id="oTFs_Lw1YSFHcPAPJdp--5" value="" style="rounded=0;html=1;jettySize=auto;orthogonalLoop=1;fontSize=11;endArrow=block;endFill=0;endSize=8;strokeWidth=1;shadow=0;labelBackgroundColor=none;edgeStyle=orthogonalEdgeStyle;entryX=0.5;entryY=0;entryDx=0;entryDy=0;exitX=0.5;exitY=1;exitDx=0;exitDy=0;" edge="1" parent="1" source="oTFs_Lw1YSFHcPAPJdp--3" target="oTFs_Lw1YSFHcPAPJdp--4">
          <mxGeometry relative="1" as="geometry">
            <mxPoint x="437.5" y="170" as="sourcePoint" />
            <mxPoint x="447.5" y="140" as="targetPoint" />
          </mxGeometry>
        </mxCell>
        <mxCell id="oTFs_Lw1YSFHcPAPJdp--6" value="Generate the objective function by LLM" style="rounded=1;whiteSpace=wrap;html=1;fontSize=12;glass=0;strokeWidth=1;shadow=0;fillColor=#d5e8d4;strokeColor=#82b366;" vertex="1" parent="1">
          <mxGeometry x="374.06" y="240" width="126.88" height="40" as="geometry" />
        </mxCell>
        <mxCell id="oTFs_Lw1YSFHcPAPJdp--7" value="Add the response to the prompt" style="rounded=1;whiteSpace=wrap;html=1;fontSize=12;glass=0;strokeWidth=1;shadow=0;fillColor=#dae8fc;strokeColor=#6c8ebf;" vertex="1" parent="1">
          <mxGeometry x="377.5" y="300" width="120" height="40" as="geometry" />
        </mxCell>
        <mxCell id="oTFs_Lw1YSFHcPAPJdp--8" value="" style="rounded=0;html=1;jettySize=auto;orthogonalLoop=1;fontSize=11;endArrow=block;endFill=0;endSize=8;strokeWidth=1;shadow=0;labelBackgroundColor=none;edgeStyle=orthogonalEdgeStyle;entryX=0.5;entryY=0;entryDx=0;entryDy=0;exitX=0.5;exitY=1;exitDx=0;exitDy=0;" edge="1" parent="1" source="oTFs_Lw1YSFHcPAPJdp--6" target="oTFs_Lw1YSFHcPAPJdp--7">
          <mxGeometry relative="1" as="geometry">
            <mxPoint x="367.5" y="230" as="sourcePoint" />
            <mxPoint x="377.5" y="200" as="targetPoint" />
          </mxGeometry>
        </mxCell>
        <mxCell id="oTFs_Lw1YSFHcPAPJdp--9" value="Generate the constraints by LLM" style="rounded=1;whiteSpace=wrap;html=1;fontSize=12;glass=0;strokeWidth=1;shadow=0;fillColor=#d5e8d4;strokeColor=#82b366;" vertex="1" parent="1">
          <mxGeometry x="377.5" y="360" width="120" height="40" as="geometry" />
        </mxCell>
        <mxCell id="oTFs_Lw1YSFHcPAPJdp--10" value="Model: &lt;br&gt;Combine the responses to get text with the mathematical model and no problem description" style="rounded=1;whiteSpace=wrap;html=1;fontSize=12;glass=0;strokeWidth=1;shadow=0;fillColor=#dae8fc;strokeColor=#6c8ebf;" vertex="1" parent="1">
          <mxGeometry x="362.5" y="420" width="150" height="80" as="geometry" />
        </mxCell>
        <mxCell id="oTFs_Lw1YSFHcPAPJdp--11" value="" style="rounded=0;html=1;jettySize=auto;orthogonalLoop=1;fontSize=11;endArrow=block;endFill=0;endSize=8;strokeWidth=1;shadow=0;labelBackgroundColor=none;edgeStyle=orthogonalEdgeStyle;entryX=0.5;entryY=0;entryDx=0;entryDy=0;exitX=0.5;exitY=1;exitDx=0;exitDy=0;" edge="1" parent="1" source="oTFs_Lw1YSFHcPAPJdp--9" target="oTFs_Lw1YSFHcPAPJdp--10">
          <mxGeometry relative="1" as="geometry">
            <mxPoint x="297.5" y="290" as="sourcePoint" />
            <mxPoint x="307.5" y="260" as="targetPoint" />
          </mxGeometry>
        </mxCell>
        <mxCell id="oTFs_Lw1YSFHcPAPJdp--12" value="" style="rounded=0;html=1;jettySize=auto;orthogonalLoop=1;fontSize=11;endArrow=block;endFill=0;endSize=8;strokeWidth=1;shadow=0;labelBackgroundColor=none;edgeStyle=orthogonalEdgeStyle;exitX=0.5;exitY=1;exitDx=0;exitDy=0;entryX=0.5;entryY=0;entryDx=0;entryDy=0;" edge="1" parent="1" source="oTFs_Lw1YSFHcPAPJdp--4" target="oTFs_Lw1YSFHcPAPJdp--6">
          <mxGeometry relative="1" as="geometry">
            <mxPoint x="437.5" y="290" as="sourcePoint" />
            <mxPoint x="427.5" y="240" as="targetPoint" />
          </mxGeometry>
        </mxCell>
        <mxCell id="oTFs_Lw1YSFHcPAPJdp--13" value="" style="rounded=0;html=1;jettySize=auto;orthogonalLoop=1;fontSize=11;endArrow=block;endFill=0;endSize=8;strokeWidth=1;shadow=0;labelBackgroundColor=none;edgeStyle=orthogonalEdgeStyle;exitX=0.5;exitY=1;exitDx=0;exitDy=0;entryX=0.5;entryY=0;entryDx=0;entryDy=0;" edge="1" parent="1" source="oTFs_Lw1YSFHcPAPJdp--7" target="oTFs_Lw1YSFHcPAPJdp--9">
          <mxGeometry relative="1" as="geometry">
            <mxPoint x="437.5" y="410" as="sourcePoint" />
            <mxPoint x="427.5" y="360" as="targetPoint" />
          </mxGeometry>
        </mxCell>
        <mxCell id="oTFs_Lw1YSFHcPAPJdp--14" value="Output: Model" style="ellipse;whiteSpace=wrap;html=1;" vertex="1" parent="1">
          <mxGeometry x="360" y="520" width="155" height="60" as="geometry" />
        </mxCell>
        <mxCell id="oTFs_Lw1YSFHcPAPJdp--16" value="" style="rounded=0;html=1;jettySize=auto;orthogonalLoop=1;fontSize=11;endArrow=block;endFill=0;endSize=8;strokeWidth=1;shadow=0;labelBackgroundColor=none;edgeStyle=orthogonalEdgeStyle;entryX=0.5;entryY=0;entryDx=0;entryDy=0;exitX=0.5;exitY=1;exitDx=0;exitDy=0;" edge="1" parent="1">
          <mxGeometry relative="1" as="geometry">
            <mxPoint x="437.33" y="500" as="sourcePoint" />
            <mxPoint x="437.33" y="520" as="targetPoint" />
          </mxGeometry>
        </mxCell>
      </root>
    </mxGraphModel>
  </diagram>
</mxfile>
